<mxfile host="app.diagrams.net" modified="2023-06-08T16:52:35.855Z" agent="Mozilla/5.0 (Windows NT 10.0; Win64; x64) AppleWebKit/537.36 (KHTML, like Gecko) Chrome/113.0.0.0 Safari/537.36 OPR/99.0.0.0" etag="3VAWUt-2rEmapuXiCJp4" version="21.3.7" type="github">
  <diagram name="Page-1" id="2YBvvXClWsGukQMizWep">
    <mxGraphModel dx="1443" dy="774" grid="1" gridSize="10" guides="1" tooltips="1" connect="1" arrows="1" fold="1" page="1" pageScale="1" pageWidth="850" pageHeight="1100" math="0" shadow="0">
      <root>
        <mxCell id="0" />
        <mxCell id="1" parent="0" />
        <mxCell id="hRcrlmGx0hsTA7UZebqg-2" value="Install DBMS, Tools" style="edgeStyle=elbowEdgeStyle;rounded=0;orthogonalLoop=1;jettySize=auto;html=1;elbow=vertical;curved=0;" edge="1" parent="1" source="aM9ryv3xv72pqoxQDRHE-5" target="hRcrlmGx0hsTA7UZebqg-1">
          <mxGeometry x="0.0065" y="10" relative="1" as="geometry">
            <Array as="points">
              <mxPoint x="190" y="150" />
            </Array>
            <mxPoint as="offset" />
          </mxGeometry>
        </mxCell>
        <mxCell id="aM9ryv3xv72pqoxQDRHE-5" value="Data Requirement" style="shape=umlLifeline;perimeter=lifelinePerimeter;whiteSpace=wrap;html=1;container=0;dropTarget=0;collapsible=0;recursiveResize=0;outlineConnect=0;portConstraint=eastwest;newEdgeStyle={&quot;edgeStyle&quot;:&quot;elbowEdgeStyle&quot;,&quot;elbow&quot;:&quot;vertical&quot;,&quot;curved&quot;:0,&quot;rounded&quot;:0};" parent="1" vertex="1">
          <mxGeometry x="20" y="40" width="100" height="300" as="geometry" />
        </mxCell>
        <mxCell id="hRcrlmGx0hsTA7UZebqg-4" value="Extract Data" style="edgeStyle=elbowEdgeStyle;rounded=0;orthogonalLoop=1;jettySize=auto;html=1;elbow=vertical;curved=0;" edge="1" parent="1" source="hRcrlmGx0hsTA7UZebqg-1" target="hRcrlmGx0hsTA7UZebqg-3">
          <mxGeometry x="0.0588" y="10" relative="1" as="geometry">
            <Array as="points">
              <mxPoint x="350" y="170" />
              <mxPoint x="290" y="170" />
              <mxPoint x="300" y="170" />
              <mxPoint x="300" y="170" />
            </Array>
            <mxPoint as="offset" />
          </mxGeometry>
        </mxCell>
        <mxCell id="hRcrlmGx0hsTA7UZebqg-1" value="Service&#39;s Database" style="shape=umlLifeline;perimeter=lifelinePerimeter;whiteSpace=wrap;html=1;container=0;dropTarget=0;collapsible=0;recursiveResize=0;outlineConnect=0;portConstraint=eastwest;newEdgeStyle={&quot;edgeStyle&quot;:&quot;elbowEdgeStyle&quot;,&quot;elbow&quot;:&quot;vertical&quot;,&quot;curved&quot;:0,&quot;rounded&quot;:0};size=40;" vertex="1" parent="1">
          <mxGeometry x="200" y="40" width="100" height="300" as="geometry" />
        </mxCell>
        <mxCell id="hRcrlmGx0hsTA7UZebqg-6" value="Transform Logic Data" style="edgeStyle=elbowEdgeStyle;rounded=0;orthogonalLoop=1;jettySize=auto;html=1;elbow=vertical;curved=0;" edge="1" parent="1" source="hRcrlmGx0hsTA7UZebqg-3" target="hRcrlmGx0hsTA7UZebqg-5">
          <mxGeometry x="0.0065" y="10" relative="1" as="geometry">
            <mxPoint as="offset" />
          </mxGeometry>
        </mxCell>
        <mxCell id="hRcrlmGx0hsTA7UZebqg-3" value="Extraction Component" style="shape=umlLifeline;perimeter=lifelinePerimeter;whiteSpace=wrap;html=1;container=0;dropTarget=0;collapsible=0;recursiveResize=0;outlineConnect=0;portConstraint=eastwest;newEdgeStyle={&quot;edgeStyle&quot;:&quot;elbowEdgeStyle&quot;,&quot;elbow&quot;:&quot;vertical&quot;,&quot;curved&quot;:0,&quot;rounded&quot;:0};" vertex="1" parent="1">
          <mxGeometry x="390" y="40" width="100" height="300" as="geometry" />
        </mxCell>
        <mxCell id="hRcrlmGx0hsTA7UZebqg-8" value="Load Transformed Data" style="edgeStyle=elbowEdgeStyle;rounded=0;orthogonalLoop=1;jettySize=auto;html=1;elbow=vertical;curved=0;" edge="1" parent="1" source="hRcrlmGx0hsTA7UZebqg-5" target="hRcrlmGx0hsTA7UZebqg-7">
          <mxGeometry x="-0.0503" y="10" relative="1" as="geometry">
            <Array as="points">
              <mxPoint x="730" y="240" />
              <mxPoint x="740" y="230" />
            </Array>
            <mxPoint as="offset" />
          </mxGeometry>
        </mxCell>
        <mxCell id="hRcrlmGx0hsTA7UZebqg-5" value="Transformation Component" style="shape=umlLifeline;perimeter=lifelinePerimeter;whiteSpace=wrap;html=1;container=0;dropTarget=0;collapsible=0;recursiveResize=0;outlineConnect=0;portConstraint=eastwest;newEdgeStyle={&quot;edgeStyle&quot;:&quot;elbowEdgeStyle&quot;,&quot;elbow&quot;:&quot;vertical&quot;,&quot;curved&quot;:0,&quot;rounded&quot;:0};size=40;" vertex="1" parent="1">
          <mxGeometry x="570" y="40" width="100" height="300" as="geometry" />
        </mxCell>
        <mxCell id="hRcrlmGx0hsTA7UZebqg-10" value="Check, Validate" style="edgeStyle=elbowEdgeStyle;rounded=0;orthogonalLoop=1;jettySize=auto;html=1;elbow=vertical;curved=0;" edge="1" parent="1" source="hRcrlmGx0hsTA7UZebqg-7" target="hRcrlmGx0hsTA7UZebqg-9">
          <mxGeometry x="0.0065" y="10" relative="1" as="geometry">
            <Array as="points">
              <mxPoint x="850" y="260" />
            </Array>
            <mxPoint as="offset" />
          </mxGeometry>
        </mxCell>
        <mxCell id="hRcrlmGx0hsTA7UZebqg-7" value="Stage Database" style="shape=umlLifeline;perimeter=lifelinePerimeter;whiteSpace=wrap;html=1;container=0;dropTarget=0;collapsible=0;recursiveResize=0;outlineConnect=0;portConstraint=eastwest;newEdgeStyle={&quot;edgeStyle&quot;:&quot;elbowEdgeStyle&quot;,&quot;elbow&quot;:&quot;vertical&quot;,&quot;curved&quot;:0,&quot;rounded&quot;:0};" vertex="1" parent="1">
          <mxGeometry x="740" y="40" width="100" height="300" as="geometry" />
        </mxCell>
        <mxCell id="hRcrlmGx0hsTA7UZebqg-12" value="Load Validated Data" style="edgeStyle=elbowEdgeStyle;rounded=0;orthogonalLoop=1;jettySize=auto;html=1;elbow=vertical;curved=0;" edge="1" parent="1" source="hRcrlmGx0hsTA7UZebqg-9" target="hRcrlmGx0hsTA7UZebqg-11">
          <mxGeometry x="0.0065" y="10" relative="1" as="geometry">
            <Array as="points">
              <mxPoint x="1070" y="280" />
            </Array>
            <mxPoint as="offset" />
          </mxGeometry>
        </mxCell>
        <mxCell id="hRcrlmGx0hsTA7UZebqg-9" value="Validation Component" style="shape=umlLifeline;perimeter=lifelinePerimeter;whiteSpace=wrap;html=1;container=0;dropTarget=0;collapsible=0;recursiveResize=0;outlineConnect=0;portConstraint=eastwest;newEdgeStyle={&quot;edgeStyle&quot;:&quot;elbowEdgeStyle&quot;,&quot;elbow&quot;:&quot;vertical&quot;,&quot;curved&quot;:0,&quot;rounded&quot;:0};" vertex="1" parent="1">
          <mxGeometry x="920" y="40" width="100" height="300" as="geometry" />
        </mxCell>
        <mxCell id="hRcrlmGx0hsTA7UZebqg-14" value="Call API" style="edgeStyle=elbowEdgeStyle;rounded=0;orthogonalLoop=1;jettySize=auto;html=1;elbow=vertical;curved=0;" edge="1" parent="1" source="hRcrlmGx0hsTA7UZebqg-11" target="hRcrlmGx0hsTA7UZebqg-13">
          <mxGeometry x="0.0065" y="10" relative="1" as="geometry">
            <Array as="points">
              <mxPoint x="1220" y="300" />
            </Array>
            <mxPoint as="offset" />
          </mxGeometry>
        </mxCell>
        <mxCell id="hRcrlmGx0hsTA7UZebqg-11" value="Central Database" style="shape=umlLifeline;perimeter=lifelinePerimeter;whiteSpace=wrap;html=1;container=0;dropTarget=0;collapsible=0;recursiveResize=0;outlineConnect=0;portConstraint=eastwest;newEdgeStyle={&quot;edgeStyle&quot;:&quot;elbowEdgeStyle&quot;,&quot;elbow&quot;:&quot;vertical&quot;,&quot;curved&quot;:0,&quot;rounded&quot;:0};" vertex="1" parent="1">
          <mxGeometry x="1100" y="40" width="100" height="300" as="geometry" />
        </mxCell>
        <mxCell id="hRcrlmGx0hsTA7UZebqg-13" value="Reporting" style="shape=umlLifeline;perimeter=lifelinePerimeter;whiteSpace=wrap;html=1;container=0;dropTarget=0;collapsible=0;recursiveResize=0;outlineConnect=0;portConstraint=eastwest;newEdgeStyle={&quot;edgeStyle&quot;:&quot;elbowEdgeStyle&quot;,&quot;elbow&quot;:&quot;vertical&quot;,&quot;curved&quot;:0,&quot;rounded&quot;:0};" vertex="1" parent="1">
          <mxGeometry x="1280" y="40" width="100" height="300" as="geometry" />
        </mxCell>
        <mxCell id="hRcrlmGx0hsTA7UZebqg-15" value="Design Schema, Data Flow" style="edgeStyle=elbowEdgeStyle;rounded=0;orthogonalLoop=1;jettySize=auto;html=1;elbow=vertical;curved=0;" edge="1" parent="1" source="aM9ryv3xv72pqoxQDRHE-5" target="hRcrlmGx0hsTA7UZebqg-1">
          <mxGeometry x="0.0065" y="10" relative="1" as="geometry">
            <mxPoint x="79" y="190" as="sourcePoint" />
            <mxPoint x="250" y="190" as="targetPoint" />
            <Array as="points">
              <mxPoint x="150" y="120" />
              <mxPoint x="200" y="190" />
              <mxPoint x="190" y="200" />
              <mxPoint x="250" y="210" />
            </Array>
            <mxPoint as="offset" />
          </mxGeometry>
        </mxCell>
        <mxCell id="hRcrlmGx0hsTA7UZebqg-16" value="Clean, Aggregate, mapping" style="edgeStyle=elbowEdgeStyle;rounded=0;orthogonalLoop=1;jettySize=auto;html=1;elbow=vertical;curved=0;" edge="1" parent="1" source="hRcrlmGx0hsTA7UZebqg-3" target="hRcrlmGx0hsTA7UZebqg-5">
          <mxGeometry x="0.0588" y="10" relative="1" as="geometry">
            <mxPoint x="450" y="260" as="sourcePoint" />
            <mxPoint x="631" y="260" as="targetPoint" />
            <Array as="points">
              <mxPoint x="530" y="220" />
            </Array>
            <mxPoint as="offset" />
          </mxGeometry>
        </mxCell>
        <mxCell id="hRcrlmGx0hsTA7UZebqg-19" value="1. &#39;Data Requirement&#39;: Đại diện các dữ liệu cụ thể được yêu cầu từ cơ sở dữ liệu của mỗi dịch vụ.&lt;br&gt;2. &#39;Service&#39;s Database&#39;: Đại diện các database của 56 service.&lt;br&gt;3. &#39;Extraction Component&#39;: Đại diện thành phần dùng để trích xuất dữ liệu.&lt;br&gt;4. &#39;Transformation Component&#39;: Đại diện thành phần dùng để chuyển đổi dữ liệu&lt;br&gt;5. &#39;Stage Database&#39;: Đại diện cho nơi lưu dữ liệu sau khi được chuyển đổi (dữ liệu nguồn)&lt;br&gt;6. &#39;Validation Component&#39;: Đại diện thành phần xác thực, đánh giá dữ liệu trước khi đổ vào cơ sở dữ liệu trung tâm&lt;br&gt;7. &#39;Central Database&#39;: Đại diện cơ sở sở dữ liệu trung tâm&lt;br&gt;8. &#39;Reporting&#39;: Các báo cáo được truy vấn gọi qua API" style="rounded=0;whiteSpace=wrap;html=1;align=left;" vertex="1" parent="1">
          <mxGeometry x="10" y="370" width="640" height="130" as="geometry" />
        </mxCell>
      </root>
    </mxGraphModel>
  </diagram>
</mxfile>
